<svg xmlns="http://www.w3.org/2000/svg" viewBox="0 0 1400 820" role="img" aria-labelledby="title desc">
  <title id="title">Quantum Etz Chaim two-plane machine</title><desc id="desc">The Sefirotic service plane coordinates the 23-register IvritCode letter plane through the Yesod bus and Aleph Olam kernel context.</desc>
  <defs><linearGradient id="bg" x2="1" y2="1"><stop stop-color="#07100f"/><stop offset="1" stop-color="#10231f"/></linearGradient><filter id="glow"><feGaussianBlur stdDeviation="6" result="b"/><feMerge><feMergeNode in="b"/><feMergeNode in="SourceGraphic"/></feMerge></filter></defs>
  <rect width="1400" height="820" rx="28" fill="url(#bg)"/><g font-family="system-ui,sans-serif"><text x="46" y="72" text-anchor="start" fill="#d4b46a" font-size="18" letter-spacing="4">SEFIROTIC SERVICE PLANE</text><text x="815" y="72" text-anchor="start" fill="#70c9c1" font-size="18" letter-spacing="4">IVRITCODE REGISTER PLANE</text>
  <text x="46" y="101" text-anchor="start" fill="#9ba9a3" font-size="12">@qec/core · orchestration, policy, observation</text><text x="815" y="101" text-anchor="start" fill="#9ba9a3" font-size="12">@ivritcode/core · canonical deterministic execution</text>
  <g stroke="#d4b46a" fill="#11241f"><g transform="translate(350 155)"><circle r="42"/><text y="6">KETER</text></g><g transform="translate(200 255)"><circle r="42"/><text y="6">BINAH</text></g><g transform="translate(500 255)"><circle r="42"/><text y="6">CHOKHMAH</text></g><g transform="translate(350 340)"><circle r="35" stroke-dasharray="4 4"/><text y="6">DA’AT</text></g><g transform="translate(200 425)"><circle r="42"/><text y="6">GEVURAH</text></g><g transform="translate(500 425)"><circle r="42"/><text y="6">CHESED</text></g><g transform="translate(350 515)" filter="url(#glow)"><circle r="47"/><text y="6">TIFERET</text></g><g transform="translate(200 610)"><circle r="42"/><text y="6">HOD</text></g><g transform="translate(500 610)"><circle r="42"/><text y="6">NETZACH</text></g><g transform="translate(350 690)"><circle r="42"/><text y="6">YESOD</text></g></g>
  <g fill="none" stroke="#d4b46a" stroke-opacity=".5"><path d="M350 197L200 213M350 197L500 213M200 297V383M500 297V383M350 375V468M235 448L310 490M465 448L390 490M310 545L235 585M390 545L465 585M235 635L310 675M465 635L390 675"/></g>
  <g transform="translate(815 145)"><rect width="490" height="470" rx="20" fill="#0c1c19" stroke="#70c9c1" stroke-opacity=".45"/><text x="25" y="42" fill="#70c9c1" font-size="14" letter-spacing="3" text-anchor="start">IVRITCODE / BASE-22 MICROSTATE</text><g font-family="serif" font-size="25" fill="#eee9dc" stroke="#d4b46a" stroke-opacity=".6"><g transform="translate(38 95)"><circle r="27"/><text y="8">א</text></g><g transform="translate(114 95)"><circle r="27"/><text y="8">ב</text></g><g transform="translate(190 95)"><circle r="27"/><text y="8">ג</text></g><g transform="translate(266 95)"><circle r="27"/><text y="8">ד</text></g><g transform="translate(342 95)"><circle r="27"/><text y="8">ה</text></g><g transform="translate(418 95)"><circle r="27"/><text y="8">ו</text></g><g transform="translate(38 177)"><circle r="27"/><text y="8">ז</text></g><g transform="translate(114 177)"><circle r="27"/><text y="8">ח</text></g><g transform="translate(190 177)"><circle r="27"/><text y="8">ט</text></g><g transform="translate(266 177)"><circle r="27"/><text y="8">י</text></g><g transform="translate(342 177)"><circle r="27"/><text y="8">כ</text></g><g transform="translate(418 177)"><circle r="27"/><text y="8">ל</text></g><g transform="translate(38 259)"><circle r="27"/><text y="8">מ</text></g><g transform="translate(114 259)"><circle r="27"/><text y="8">נ</text></g><g transform="translate(190 259)"><circle r="27"/><text y="8">ס</text></g><g transform="translate(266 259)"><circle r="27"/><text y="8">ע</text></g><g transform="translate(342 259)"><circle r="27"/><text y="8">פ</text></g><g transform="translate(418 259)"><circle r="27"/><text y="8">צ</text></g><g transform="translate(38 341)"><circle r="27"/><text y="8">ק</text></g><g transform="translate(114 341)"><circle r="27"/><text y="8">ר</text></g><g transform="translate(190 341)"><circle r="27"/><text y="8">ש</text></g><g transform="translate(266 341)"><circle r="27"/><text y="8">ת</text></g></g><g transform="translate(245 415)" filter="url(#glow)"><circle r="38" fill="#16352e" stroke="#70c9c1"/><text y="8" fill="#eee9dc" font-size="27">א∞</text><text y="66" fill="#70c9c1" font-size="12" letter-spacing="2">ALEPH OLAM</text></g></g>
  <g><path d="M650 390H780" stroke="#70c9c1" stroke-width="4"/><path d="M760 374L790 390L760 406" fill="none" stroke="#70c9c1" stroke-width="4"/><text x="715" y="365" fill="#70c9c1" font-size="12" letter-spacing="2">YESOD BUS</text></g><rect x="825" y="650" width="470" height="72" rx="18" fill="#d4b46a" fill-opacity=".08" stroke="#d4b46a"/><text x="1060" y="682" fill="#d4b46a" font-size="13" letter-spacing="3">MALCHUT OUTPUT</text><text x="1060" y="705" fill="#9ba9a3" font-size="13">screen · file · sound · export</text></g>
  <style>text{text-anchor:middle;fill:#eee9dc;font-size:12px}g[transform="translate(815 145)"]>g[font-family="serif"] circle{fill:#f2ecdc;stroke:#d4b46a;stroke-opacity:.75}g[transform="translate(815 145)"]>g[font-family="serif"] text{fill:#12322b;stroke:none;font-size:27px;font-weight:700}.letter text{font-size:24px}</style>
</svg>
